<svg xmlns="http://www.w3.org/2000/svg" width="363" height="152" fill="none" viewBox="0 0 363 152"><path fill="#F8FAFC" d="M358 0C360.209 0 362 1.79086 362 4V13.8182L324 13.8182V4C324 1.79086 325.791 0 328 0L358 0Z"/><rect width="13.818" height="38" x="362" y="13.818" fill="#F1F5F9" transform="rotate(90 362 13.8182)"/><rect width="13.818" height="38" x="362" y="27.636" fill="#E2E8F0" transform="rotate(90 362 27.6364)"/><rect width="13.818" height="38" x="362" y="41.455" fill="#CBD5E1" transform="rotate(90 362 41.4545)"/><rect width="13.818" height="38" x="362" y="55.273" fill="#94A3B8" transform="rotate(90 362 55.2727)"/><rect width="13.818" height="38" x="362" y="69.091" fill="#64748B" transform="rotate(90 362 69.0909)"/><rect width="13.818" height="38" x="362" y="82.909" fill="#475569" transform="rotate(90 362 82.9091)"/><rect width="13.818" height="38" x="362" y="96.727" fill="#334155" transform="rotate(90 362 96.7273)"/><rect width="13.818" height="38" x="362" y="110.545" fill="#1E293B" transform="rotate(90 362 110.545)"/><rect width="13.818" height="38" x="362" y="124.364" fill="#0F172A" transform="rotate(90 362 124.364)"/><path fill="#020420" d="M362 138.182V148C362 150.209 360.209 152 358 152H328C325.791 152 324 150.209 324 148V138.182H362Z"/><path fill="#EEF2FF" d="M304 0C306.209 0 308 1.79086 308 4V13.8182L270 13.8182V4C270 1.79086 271.791 0 274 0L304 0Z"/><rect width="13.818" height="38" x="308" y="13.818" fill="#E0E7FF" transform="rotate(90 308 13.8182)"/><rect width="13.818" height="38" x="308" y="27.636" fill="#C7D2FE" transform="rotate(90 308 27.6364)"/><rect width="13.818" height="38" x="308" y="41.455" fill="#A5B4FC" transform="rotate(90 308 41.4545)"/><rect width="13.818" height="38" x="308" y="55.273" fill="#818CF8" transform="rotate(90 308 55.2727)"/><rect width="13.818" height="38" x="308" y="69.091" fill="#6366F1" transform="rotate(90 308 69.0909)"/><rect width="13.818" height="38" x="308" y="82.909" fill="#4F46E5" transform="rotate(90 308 82.9091)"/><rect width="13.818" height="38" x="308" y="96.727" fill="#4338CA" transform="rotate(90 308 96.7273)"/><rect width="13.818" height="38" x="308" y="110.545" fill="#3730A3" transform="rotate(90 308 110.545)"/><rect width="13.818" height="38" x="308" y="124.364" fill="#312E81" transform="rotate(90 308 124.364)"/><path fill="#1E1B4B" d="M308 138.182V148C308 150.209 306.209 152 304 152H274C271.791 152 270 150.209 270 148V138.182H308Z"/><path fill="#F5F3FF" d="M250 0C252.209 0 254 1.79086 254 4V13.8182L216 13.8182V4C216 1.79086 217.791 0 220 0L250 0Z"/><rect width="13.818" height="38" x="254" y="13.818" fill="#EDE9FE" transform="rotate(90 254 13.8182)"/><rect width="13.818" height="38" x="254" y="27.636" fill="#DDD6FE" transform="rotate(90 254 27.6364)"/><rect width="13.818" height="38" x="254" y="41.455" fill="#C4B5FD" transform="rotate(90 254 41.4545)"/><rect width="13.818" height="38" x="254" y="55.273" fill="#A78BFA" transform="rotate(90 254 55.2727)"/><rect width="13.818" height="38" x="254" y="69.091" fill="#8B5CF6" transform="rotate(90 254 69.0909)"/><rect width="13.818" height="38" x="254" y="82.909" fill="#7C3AED" transform="rotate(90 254 82.9091)"/><rect width="13.818" height="38" x="254" y="96.727" fill="#6D28D9" transform="rotate(90 254 96.7273)"/><rect width="13.818" height="38" x="254" y="110.545" fill="#5B21B6" transform="rotate(90 254 110.545)"/><rect width="13.818" height="38" x="254" y="124.364" fill="#4C1D95" transform="rotate(90 254 124.364)"/><path fill="#2E1065" d="M254 138.182V148C254 150.209 252.209 152 250 152H220C217.791 152 216 150.209 216 148V138.182H254Z"/><path fill="#FFF1F2" d="M34 0C36.2091 0 38 1.79086 38 4V13.8182L0 13.8182V4C0 1.79086 1.79086 0 4 0L34 0Z"/><rect width="13.818" height="38" x="38" y="13.818" fill="#FFE4E6" transform="rotate(90 38 13.8182)"/><rect width="13.818" height="38" x="38" y="27.636" fill="#FECDD3" transform="rotate(90 38 27.6364)"/><rect width="13.818" height="38" x="38" y="41.455" fill="#FDA4AF" transform="rotate(90 38 41.4545)"/><rect width="13.818" height="38" x="38" y="55.273" fill="#FB7185" transform="rotate(90 38 55.2727)"/><rect width="13.818" height="38" x="38" y="69.091" fill="#F43F5E" transform="rotate(90 38 69.0909)"/><rect width="13.818" height="38" x="38" y="82.909" fill="#E11D48" transform="rotate(90 38 82.9091)"/><rect width="13.818" height="38" x="38" y="96.727" fill="#BE123C" transform="rotate(90 38 96.7273)"/><rect width="13.818" height="38" x="38" y="110.545" fill="#9F1239" transform="rotate(90 38 110.545)"/><rect width="13.818" height="38" x="38" y="124.364" fill="#881337" transform="rotate(90 38 124.364)"/><path fill="#4C0519" d="M38 138.182V148C38 150.209 36.2091 152 34 152H4C1.79086 152 0 150.209 0 148V138.182H38Z"/><path fill="#F0F9FF" d="M88 0C90.2091 0 92 1.79086 92 4V13.8182L54 13.8182V4C54 1.79086 55.7909 0 58 0L88 0Z"/><rect width="13.818" height="38" x="92" y="13.818" fill="#E0F2FE" transform="rotate(90 92 13.8182)"/><rect width="13.818" height="38" x="92" y="27.636" fill="#BAE6FD" transform="rotate(90 92 27.6364)"/><rect width="13.818" height="38" x="92" y="41.455" fill="#7DD3FC" transform="rotate(90 92 41.4545)"/><rect width="13.818" height="38" x="92" y="55.273" fill="#38BDF8" transform="rotate(90 92 55.2727)"/><rect width="13.818" height="38" x="92" y="69.091" fill="#0EA5E9" transform="rotate(90 92 69.0909)"/><rect width="13.818" height="38" x="92" y="82.909" fill="#0284C7" transform="rotate(90 92 82.9091)"/><rect width="13.818" height="38" x="92" y="96.727" fill="#0369A1" transform="rotate(90 92 96.7273)"/><rect width="13.818" height="38" x="92" y="110.545" fill="#075985" transform="rotate(90 92 110.545)"/><rect width="13.818" height="38" x="92" y="124.364" fill="#0C4A6E" transform="rotate(90 92 124.364)"/><path fill="#082F49" d="M92 138.182V148C92 150.209 90.2091 152 88 152H58C55.7909 152 54 150.209 54 148V138.182H92Z"/><path fill="#F0FDFA" d="M142 0C144.209 0 146 1.79086 146 4V13.8182L108 13.8182V4C108 1.79086 109.791 0 112 0L142 0Z"/><rect width="13.818" height="38" x="146" y="13.818" fill="#CCFBF1" transform="rotate(90 146 13.8182)"/><rect width="13.818" height="38" x="146" y="27.636" fill="#99F6E4" transform="rotate(90 146 27.6364)"/><rect width="13.818" height="38" x="146" y="41.455" fill="#5EEAD4" transform="rotate(90 146 41.4545)"/><rect width="13.818" height="38" x="146" y="55.273" fill="#2DD4BF" transform="rotate(90 146 55.2727)"/><rect width="13.818" height="38" x="146" y="69.091" fill="#14B8A6" transform="rotate(90 146 69.0909)"/><rect width="13.818" height="38" x="146" y="82.909" fill="#0D9488" transform="rotate(90 146 82.9091)"/><rect width="13.818" height="38" x="146" y="96.727" fill="#0F766E" transform="rotate(90 146 96.7273)"/><rect width="13.818" height="38" x="146" y="110.545" fill="#115E59" transform="rotate(90 146 110.545)"/><rect width="13.818" height="38" x="146" y="124.364" fill="#134E4A" transform="rotate(90 146 124.364)"/><path fill="#042F2E" d="M146 138.182V148C146 150.209 144.209 152 142 152H112C109.791 152 108 150.209 108 148V138.182H146Z"/><path fill="#F0FDF4" d="M196 0C198.209 0 200 1.79086 200 4V13.8182L162 13.8182V4C162 1.79086 163.791 0 166 0L196 0Z"/><rect width="13.818" height="38" x="200" y="13.818" fill="#DCFCE7" transform="rotate(90 200 13.8182)"/><rect width="13.818" height="38" x="200" y="27.636" fill="#BBF7D0" transform="rotate(90 200 27.6364)"/><rect width="13.818" height="38" x="200" y="41.455" fill="#86EFAC" transform="rotate(90 200 41.4545)"/><rect width="13.818" height="38" x="200" y="55.273" fill="#4ADE80" transform="rotate(90 200 55.2727)"/><rect width="13.818" height="38" x="200" y="69.091" fill="#22C55E" transform="rotate(90 200 69.0909)"/><rect width="13.818" height="38" x="200" y="82.909" fill="#16A34A" transform="rotate(90 200 82.9091)"/><rect width="13.818" height="38" x="200" y="96.727" fill="#15803D" transform="rotate(90 200 96.7273)"/><rect width="13.818" height="38" x="200" y="110.545" fill="#166534" transform="rotate(90 200 110.545)"/><rect width="13.818" height="38" x="200" y="124.364" fill="#14532D" transform="rotate(90 200 124.364)"/><path fill="#052E16" d="M200 138.182V148C200 150.209 198.209 152 196 152H166C163.791 152 162 150.209 162 148V138.182H200Z"/></svg>